<svg width="128" height="128" viewBox="0 0 128 128" fill="none" xmlns="http://www.w3.org/2000/svg">
  <!-- Background with rounded corners -->
  <rect width="128" height="128" rx="32" fill="#06B6D4"/>
  
  <!-- Brain icon -->
  <path d="M64 32C50.7452 32 40 42.7452 40 56C40 62 42 67.6 45.6 72C42 76.4 40 82 40 88C40 101.255 50.7452 112 64 112C77.2548 112 88 101.255 88 88C88 82 86 76.4 82.4 72C86 67.6 88 62 88 56C88 42.7452 77.2548 32 64 32Z" fill="white"/>
  
  <!-- Brain details -->
  <path d="M56 48C56 52.4183 59.5817 56 64 56C68.4183 56 72 52.4183 72 48C72 43.5817 68.4183 40 64 40C59.5817 40 56 43.5817 56 48Z" fill="#06B6D4"/>
  <path d="M56 80C56 84.4183 59.5817 88 64 88C68.4183 88 72 84.4183 72 80C72 75.5817 68.4183 72 64 72C59.5817 72 56 75.5817 56 80Z" fill="#06B6D4"/>
  <path d="M48 64C48 68.4183 51.5817 72 56 72C60.4183 72 64 68.4183 64 64C64 59.5817 60.4183 56 56 56C51.5817 56 48 59.5817 48 64Z" fill="#06B6D4"/>
  <path d="M64 64C64 68.4183 67.5817 72 72 72C76.4183 72 80 68.4183 80 64C80 59.5817 76.4183 56 72 56C67.5817 56 64 59.5817 64 64Z" fill="#06B6D4"/>
</svg>
