<svg width="32" height="32" viewBox="0 0 32 32" fill="none" xmlns="http://www.w3.org/2000/svg">
  <!-- Background circle -->
  <rect width="32" height="32" rx="8" fill="#06B6D4"/>
  
  <!-- Brain icon -->
  <path d="M16 8C12.6863 8 10 10.6863 10 14C10 15.5 10.5 16.9 11.4 18C10.5 19.1 10 20.5 10 22C10 25.3137 12.6863 28 16 28C19.3137 28 22 25.3137 22 22C22 20.5 21.5 19.1 20.6 18C21.5 16.9 22 15.5 22 14C22 10.6863 19.3137 8 16 8Z" fill="white"/>
  
  <!-- Brain details -->
  <path d="M14 12C14 13.1046 14.8954 14 16 14C17.1046 14 18 13.1046 18 12C18 10.8954 17.1046 10 16 10C14.8954 10 14 10.8954 14 12Z" fill="#06B6D4"/>
  <path d="M14 20C14 21.1046 14.8954 22 16 22C17.1046 22 18 21.1046 18 20C18 18.8954 17.1046 18 16 18C14.8954 18 14 18.8954 14 20Z" fill="#06B6D4"/>
  <path d="M12 16C12 17.1046 12.8954 18 14 18C15.1046 18 16 17.1046 16 16C16 14.8954 15.1046 14 14 14C12.8954 14 12 14.8954 12 16Z" fill="#06B6D4"/>
  <path d="M16 16C16 17.1046 16.8954 18 18 18C19.1046 18 20 17.1046 20 16C20 14.8954 19.1046 14 18 14C16.8954 14 16 14.8954 16 16Z" fill="#06B6D4"/>
</svg>
